<svg width="647" height="134" xmlns="http://www.w3.org/2000/svg">

 <g>
  <title>background</title>
  <rect fill="none" id="canvas_background" height="402" width="582" y="-1" x="-1"/>
 </g>
 <g>
  <title>Layer 1</title>
  <path id="svg_1" fill="#ffffff" d="m626.98286,95.100448c-10.326,0 -18.693,8.198 -18.693,18.307c0,10.101 8.367,18.3 18.693,18.3c10.328,0 18.696,-8.199 18.696,-18.3c-0.01,-10.11 -8.37,-18.311 -18.7,-18.311m-102.36,10.411l0.029,-107.35l-11.292,0s-18.76,6.785 -32.272,8.228l0,20.277l8.531,0c2.742,0 3.894,1.171 3.934,3.733l0,75.109c0,2.646 -1.556,4.097 -4.073,4.261c-2.155,0.143 -6.984,0.455 -6.984,0.455l0,20.28l53.188,0l0,-20.28s-4.836,-0.312 -6.986,-0.455c-2.53,-0.16 -4.08,-1.61 -4.08,-4.26l0.005,0.002zm107.5,-53.275c-1.037,-22.621 -31.673,-23.662 -47.686,-8.381l-2.923,-8.759l-37.026,0l0,20.731l7.764,-0.011c2.753,0 3.769,1.168 3.806,3.729l0,45.971c0,2.646 -1.558,4.097 -4.076,4.261c-2.156,0.143 -6.494,0.451 -6.494,0.451l0,20.284l52.133,0l0,-20.284s-4.312,-0.309 -6.461,-0.451c-2.521,-0.164 -4.082,-1.614 -4.082,-4.261l-0.012,-31.169c0,-5.842 1.339,-15.591 11.649,-18.085c1.271,9.749 10.689,12.661 15.286,12.661c11.61,0.003 18.12,-8.684 18.12,-16.682l0.002,-0.005zm-196.42,-18.409c-7.895,0.346 -16.223,3.367 -22.272,8.624l0,-44.282l-11.176,0s-18.273,6.492 -32.42,8.228l-0.461,20.277l8.942,0.013c2.745,0 3.927,1.169 3.964,3.734l0,100.1l25.554,-0.026l3.655,-8.214c0.78,0.438 12.506,11.459 31.23,9.254c23.573,-2.779 35.954,-21.444 35.954,-49.763c0.02,-14.851 -4.54,-49.62 -42.96,-47.941l-0.01,-0.004zm-4.72,74.554c-4.342,0.32 -12.377,-0.41 -17.544,-9.479l0,-13.285l0.004,-0.008l-0.004,0l0,-15.362c0,-6.641 6.136,-12.471 15.628,-12.823c9.613,-0.356 18.125,6.206 18.125,24.74c-0.02,25.008 -10.98,25.828 -16.22,26.218l0.011,-0.001zm-68.86,-2.79s0.002,-23.559 0.002,-28.944c0,-10.315 -0.124,-20.975 -6.952,-29.677c-6.254,-7.963 -16.629,-13.803 -32.382,-13.045c-10.462,0.504 -21.621,5.366 -27.782,13.692l-0.971,1.226l-0.59,-0.71c-6.333,-9.146 -16.446,-14.965 -32.197,-14.208c-10.465,0.504 -21.624,5.366 -27.785,13.692l-0.92,-12.426l-38.603,0l0,20.735l8.884,0.131c2.748,0 3.907,1.169 3.945,3.733l0.001,40.577l0,5.229c0,2.647 -1.557,4.099 -4.072,4.264c-2.156,0.142 -6.519,0.451 -6.519,0.451l0,20.279l52.2,0.018l0,-20.3s-4.113,-0.291 -6.52,-0.451c-2.517,-0.172 -4.07,-1.616 -4.07,-4.264c0,0 0.042,-25.899 0.042,-31.086c0,-5.179 4.287,-15.809 17.894,-15.809c10.977,0 13.226,6.69 13.226,14.476c0,7.783 0.012,32.423 0.012,32.423c0,2.647 -1.554,4.095 -4.069,4.26c-2.155,0.145 -6.52,0.457 -6.52,0.457l0,20.273l52.145,0l0,-20.28s-4.111,-0.291 -6.521,-0.451c-2.515,-0.172 -4.047,-1.616 -4.047,-4.264l-0.078,0s0.045,-25.899 0.045,-31.086c0,-5.179 3.822,-15.809 17.432,-15.809c10.976,0 13.724,6.69 13.724,14.476l0,27.189l-0.006,5.233c0,2.647 -1.559,4.095 -4.071,4.26c-2.157,0.145 -6.521,0.457 -6.521,0.457l0,20.273l52.213,0l0,-20.28s-4.113,-0.291 -6.518,-0.451c-2.49,-0.17 -4.02,-1.62 -4.02,-4.27l-0.031,0.007zm-185.14,0.2l0,-70.595l-43.382,0l0,20.729l8.358,0.002c2.752,0 3.907,1.17 3.944,3.733l-0.043,32.204c0,3.157 -2.276,15.012 -18.081,15.309c-10.77,0.207 -13.036,-6.145 -13.036,-14.475l0,-57.5l-31.947,0l0,59.146c0,14.966 6.835,38.51 38.726,37.649c10.47,-0.288 22.465,-5.554 28.698,-13.276l0.261,11.893l35.597,0l0,-20.279s-2.879,-0.224 -5.035,-0.368c-2.52,-0.15 -4.06,-1.51 -4.06,-4.16l0,-0.012zm-118.26,2.35c-10.6,0.272 -12.65,-7.29 -12.741,-12.781l0,-38.089l24.703,0l0,-22.077l-24.604,0l0,-32.813l-19.398,0c-0.318,0 -0.874,0.275 -0.952,0.97c-1.138,10.104 -5.972,27.842 -26.053,34.927l0,18.993l15.286,0l0,40.099c0,14.499 9.042,35.094 37.881,34.61c9.732,-0.161 20.543,-4.152 22.936,-7.591l-6.369,-18.483c-2.465,1.14 -7.17,2.14 -10.689,2.23l0,0.005z"/>
  <path d="m34.592575,20.717554c1.431416,0 2.229485,0.81518 3.33997,3.81711c0.682545,1.845095 0.891941,4.832804 0.477139,6.202801c-0.498528,1.64653 -1.431416,1.908554 -1.908554,2.385693l-0.477139,0.477139l0,0.477139l-0.477139,0" id="svg_2" stroke-opacity="null" stroke-width="null" stroke="null" fill="none"/>
  <path stroke="null" d="m41.749657,136.01035c-0.477139,0 -1.446049,1.16267 -2.862835,-13.259087c-2.412693,-24.5594 -4.735981,-46.374418 -7.157078,-53.036346c-0.474817,-1.30652 -1.285143,-19.342435 -1.908554,-26.518173c-0.881638,-10.148031 -1.431416,0 -1.908554,0c-0.477139,0 -0.954277,0 -1.908554,0c-0.477139,0 -0.954279,0 -2.862833,0c-0.477139,0 -2.461691,-5.162477 -3.817108,13.259087c-3.090828,42.007513 -4.771386,92.813606 -5.248525,106.072692l-0.477139,0l0,13.259087" id="svg_4" fill-opacity="null" stroke-opacity="null" stroke-width="null" fill="none"/>
 </g>
</svg>